<?xml version="1.0" encoding="UTF-8"?>
<!DOCTYPE svg PUBLIC "-//W3C//DTD SVG 1.1//EN" "http://www.w3.org/Graphics/SVG/1.1/DTD/svg11.dtd">
<!-- Creator: CorelDRAW -->
<svg xmlns="http://www.w3.org/2000/svg" xml:space="preserve" width="55.0333mm" height="15.6325mm" version="1.1" style="shape-rendering:geometricPrecision; text-rendering:geometricPrecision; image-rendering:optimizeQuality; fill-rule:evenodd; clip-rule:evenodd"
viewBox="0 0 536.95 152.52"
 xmlns:xlink="http://www.w3.org/1999/xlink"
 xmlns:xodm="http://www.corel.com/coreldraw/odm/2003">
 <defs>
  <style type="text/css">
   <![CDATA[
    .fil0 {fill:white}
   ]]>
  </style>
 </defs>
 <g id="Слой_x0020_1">
  <metadata id="CorelCorpID_0Corel-Layer"/>
  <path class="fil0" d="M-0 39.35l0 0.31c0,6.55 0.2,9.75 4.8,15.54 3.45,4.33 7.73,6.45 13.37,6.45 -0.19,-8.67 -4.96,-3.95 -4.96,-22.3 0,-12.03 6.88,-24.94 14.04,-29.74l-1.41 93.59c-1.33,6.73 -7.4,18.63 5.08,10.04 7.91,-5.45 11.2,-17.2 11.2,-27.63l0 -79.3c0,-4.65 -10.12,-7.27 -14.18,-5.98 -3.79,1.2 -10.67,6.41 -13.32,9.06 -5.69,5.69 -14.64,19.14 -14.64,29.97zm296.56 106.56c-6.16,0 -7.43,-3.07 -7.43,-8.26 0,-8.36 13.7,-24.27 18.17,-27.26 0,12.76 0.9,35.52 -10.74,35.52zm0.32 6.61l-2.91 0c-8.35,-0.55 -15.58,-5.77 -15.58,-14.87l0 -4.13c0,-9.98 16.1,-22.41 22.5,-28.72 4.4,-4.35 6.42,-2.31 6.42,-10.1 -4.08,1.09 -17.58,18.61 -31.11,2.2 -1.61,-1.95 -0.9,-2.31 -3.58,-3.03 -2.83,10.61 -16.63,12.42 -23.79,4.8l-4.29 -8.1c-1.63,6.09 -11.18,13.22 -19,13.22 -13.96,0 -14.54,-13.25 -19,-16.52 -0.26,3.07 -1.24,3.95 -2.41,5.86 -4.74,7.75 -12.58,14.33 -22.07,7.88 -2.09,-1.42 -3.31,-3.17 -4.63,-5.28 -2.32,-3.7 -4.33,-10.6 -4.77,-15.89 -0.12,0.17 -0.23,0.42 -0.29,0.53 -0.06,0.11 -0.22,0.39 -0.29,0.53 -0.08,0.14 -0.2,0.38 -0.29,0.54 -8.31,15.72 -22.22,27.56 -42.01,20.62 -3.28,-1.15 -5.37,-2.42 -7.51,-4.88 0.37,-4.46 3.24,-9.91 8.26,-9.91 1.74,0 10.5,10.59 15.86,2.65 3.88,-5.75 -0.6,-13.49 -4.5,-17.32 -2.69,-2.64 -5.05,-6.61 -8.89,-7.63l-13.54 22.8c-3.91,5.85 -10.66,16.02 -19.5,16.02 -4.23,0 -7.09,-4.17 -8.12,-7.58 -4.05,-13.42 -0.97,-34.36 -0.97,-48.6 -10.45,7 -16.51,29.62 -19.67,42.29 -1.47,5.89 -0.14,13.89 -6.77,13.89 -3.6,0 -6.92,-0.88 -8.33,-4.07 -2.82,-6.4 -2.12,-43.22 -0.99,-51.51 1.31,-9.56 -2.99,-18.38 13.44,-9.69l0 29.74c4.89,-7.04 11.7,-46.32 34.41,-28.62 3.61,2.82 2.79,5.49 2.77,11.27 -0.04,12.21 -2.08,26.38 0.82,38.83 3.99,-0.93 5.05,-2.96 7.11,-6.11 2.1,-3.21 3.11,-4.75 5.02,-8.19 2.02,-3.62 6.72,-13.25 9.34,-16.27 -1.81,-2.71 -4.13,-5.37 -4.13,-9.91 0,-8.55 9.82,-17.38 18.23,-15 12.28,3.48 -1.28,16.91 -2.54,21.61 4.11,1.1 11.59,7.83 14.67,10.94 5.37,5.41 7.63,6.58 7.63,17.15 14.04,-9.4 10.74,-35.76 10.74,-51.22l-16.52 -0.83c-0.75,-3.22 -0.95,-4.39 0.42,-7.84 1.92,-4.82 5.33,-2.9 16.92,-2.9l0 -12.39c0,-6.07 0.9,-9.39 5.98,-8.56 14.65,2.39 10.66,6.28 9.72,21.78 4.37,0 17.04,0.81 20.65,1.65 0,12.41 -4.57,9.09 -20.65,9.09 0,4.35 -0.63,4.52 -0.83,8.26 -0.43,7.93 0.69,16.63 -0.47,24.31 -1.09,7.22 -0.28,26.91 5.43,26.91 6.26,0 11.71,-11.17 12.3,-16.61 1.55,-14.08 2,-33.96 16.73,-40.27 9.28,-3.98 12.67,0.13 19.71,4.84 3.55,-6.71 7.52,-4.58 15.06,-0.82 -0.38,13.71 -2.54,35.2 0.13,48.41 2.01,9.94 9.65,7.96 12.35,-0.22 1.21,-3.67 0.55,-9.23 0.55,-13.5 -0,-13.9 3.03,-34.34 17.02,-39.16 10.79,-3.72 12.83,1.77 19.33,6.12 0.19,-8.58 10,-3.79 14.04,-1.65l0 44.61c3.96,-2.9 14.87,-25 14.87,-32.22 0,-0.56 -4.13,-4.33 -4.13,-7.43 0,-13.51 17.35,-15.93 17.35,-5.78l0 4.13c6.34,0 10.69,-2.48 16.52,-2.48 10.88,0 5.21,15.65 4.19,20.71 -6.37,31.79 7.83,42.1 12.52,27.35 0.97,-3.06 -0.19,-16.01 -0.19,-20.81 0,-14.2 8.53,-35.54 24.34,-33.45 7.61,1.01 7.48,3.99 12,7.02 0.22,-10.06 14.04,-2.88 14.04,0 0,14.58 -0.64,28.6 -0.02,42.97 0.68,15.59 9.72,12.32 13.96,0.72 3.31,-9.06 1.75,-24.29 1.75,-34.6 -0,-6.42 -3.31,-20.1 11.52,-13.17 3,1.4 2.61,2.21 2.59,6.5 -0.02,6.08 -0.06,12.15 -0.06,18.23l2.79 -7.12c1.57,-4.8 5.07,-19.31 10.43,-19.31 3.7,0 8.43,1.47 10.52,3.53 2.38,2.35 2.76,5.07 2.73,9.66 -0.05,9.18 0.79,15.52 0.79,23.99l0.83 0c0,-6.38 7.77,-37.17 14.04,-37.17 4.44,0 12.18,3.15 13.52,6.3 3.99,9.37 -5.23,52.35 7.13,52.35 7.46,0 4.68,-15.7 9.91,-15.7 1.87,0 2.46,0.56 2.48,2.39l0 0.09c0,12.9 -8.16,28.43 -21.79,20.97 -11.5,-6.29 -9.09,-22.11 -10.66,-33.14 -0.85,-5.97 0.23,-8.83 0.23,-15.92 -0.89,1.02 -0.96,1.09 -1.66,2.47 -2.7,5.34 -4.53,11.98 -5.95,18.01 -1.43,6.06 -3.13,16.51 -3.13,24.13 -13.2,3.07 -14.91,-3.79 -16.68,-18.02 -1.05,-8.45 -1.5,-16.64 -1.5,-26.59 -4.28,3.14 -8.63,18.53 -9.69,25 -1.93,11.77 2.42,26.21 -7.66,26.21 -12.9,0 -7.78,-6.31 -11.57,-9.09 -2.37,10.16 -14.77,11.23 -21.43,4.91 -2.51,-2.38 -3.59,-5.27 -5,-8.22 -3.79,2.77 -14.07,20.22 -29.44,8.78 -3.3,-2.45 -3.17,-4.35 -6.09,-6.31 -2.34,8.76 -13.72,11.74 -20.66,7.45 -18.01,-11.16 -8.25,-38.28 -8.25,-49.58 -14.79,0 -8.97,0.48 -14.86,12.4 -2.12,4.29 -4.2,8.5 -6.57,12.43l-7.49 11.51c-3,4.27 -6.56,5.74 -6.67,11.5 -0.3,14.95 0.81,22.96 -2.56,35.44 -3.08,11.4 -12.27,16.95 -21.01,17.5zm-65.58 -58.65l-2.48 0c-11.43,0 -11.51,-48.74 4.13,-48.74 14.88,0 10.27,48.74 -1.65,48.74zm174.3 0c-10.13,0 -9.09,-17.14 -9.09,-25.61 0,-29.18 21.48,-31.48 21.48,-3.3 0,10.14 -3.23,28.91 -12.39,28.91zm-110.69 0c-5.24,0 -7.7,-1.78 -9.46,-10.37 -4.69,-22.93 7.4,-47.57 17.39,-35.57 1.15,1.38 2.11,4.41 2.49,6.6 1.99,11.56 -0.54,39.33 -10.42,39.33z"/>
 </g>
</svg>
